<?xml version="1.0" encoding="UTF-8"?>
<svg id="Layer_1" data-name="Layer 1" xmlns="http://www.w3.org/2000/svg" viewBox="0 0 1383.9 306.22">
  <defs>
    <style>
      .cls-1 {
        fill: #221f20;
      }
    </style>
  </defs>
  <path class="cls-1" d="M23.06,3.35H14.06V47.56l11.38-3.12c41.81-11.45,92.52-16.77,172.34-17.9L10.17,289.2l-10.17,14.23H251.16v-44.17l-11.35,3.07c-44.78,12.12-93.65,17.35-170.74,18.01L257.28,17.59l10.2-14.24H23.06Z"/>
  <path class="cls-1" d="M592.8,48.25C562.65,17.05,519.86,.56,469.05,.56s-93.6,16.49-123.75,47.69c-13.57,14.04-24.08,30.55-31.24,49.08-6.89,17.82-10.38,36.68-10.38,56.06s3.49,38.24,10.38,56.06c7.16,18.53,17.67,35.04,31.24,49.08,30.15,31.2,72.95,47.69,123.75,47.69s93.6-16.49,123.75-47.69c13.57-14.04,24.08-30.56,31.24-49.08,6.89-17.82,10.38-36.68,10.38-56.06s-3.49-38.24-10.38-56.06c-7.16-18.53-17.67-35.04-31.24-49.08Zm-4.39,104.86c0,62.66-37.35,130.09-119.36,130.09s-119.36-67.44-119.36-130.09S387.04,23.02,469.05,23.02c36.87,0,67.75,13.89,89.31,40.17,9.74,11.87,17.3,25.89,22.47,41.65,5.03,15.32,7.57,31.56,7.57,48.27Z"/>
  <path class="cls-1" d="M960.94,31.3c-12.09-9.88-25.77-17.55-40.65-22.79-16.02-5.65-33.54-8.51-52.08-8.51-50.81,0-93.61,16.52-123.76,47.79-13.57,14.07-24.08,30.61-31.24,49.17-6.89,17.85-10.38,36.74-10.38,56.16s3.49,38.31,10.38,56.16c7.16,18.56,17.67,35.1,31.24,49.17,30.15,31.26,72.95,47.79,123.76,47.79,22.3,0,43.29-3.25,62.38-9.67,17.61-5.92,33.75-14.56,47.98-25.69l3.45-2.7v-68.57l-16.62,26.51c-13.37,21.33-43.78,57.11-97.18,57.11-49.4,0-77.74-24.34-92.82-44.76-24.54-33.25-32.66-81.69-21.36-125.11h257.5l-3.73-11.73c-9.01-28.32-25.21-52.63-46.85-70.3Zm-2.58,59.02h-196.1c8.29-17.97,20.05-33.13,34.46-44.31,19.67-15.26,43.73-22.99,71.49-22.99,24.02,0,44.71,7.85,61.49,23.33,12.22,11.27,22,26.32,28.65,43.97Z"/>
  <path class="cls-1" d="M1380.21,291.72l-66.34-210.17c-8.24-26.14-23.76-47.51-44.88-61.79C1249.93,6.88,1227.11,.07,1203,.07c-17.74,0-35.39,3.8-51.03,11-9.87,4.54-18.85,10.4-26.6,17.32l-2.39-17.29-1.08-7.77h-33.56V303.43h43.09V99.87c0-23.57,7.53-43.41,21.76-57.4,12.46-12.23,29.78-19.25,47.54-19.25,14.01,0,27.3,4.2,38.44,12.15,12.18,8.69,21.28,21.72,26.32,37.66l71.36,224.13,2,6.27h45.06l-3.7-11.71Z"/>
</svg>